<svg width="32" height="32" viewBox="0 0 32 32" fill="none" xmlns="http://www.w3.org/2000/svg">
  <defs>
    <linearGradient id="lightningGradient" x1="0%" y1="0%" x2="100%" y2="100%">
      <stop offset="0%" style="stop-color:#FFD700;stop-opacity:1" />
      <stop offset="50%" style="stop-color:#FFA500;stop-opacity:1" />
      <stop offset="100%" style="stop-color:#FF6B35;stop-opacity:1" />
    </linearGradient>
    <linearGradient id="serverGradient" x1="0%" y1="0%" x2="100%" y2="100%">
      <stop offset="0%" style="stop-color:#4F46E5;stop-opacity:1" />
      <stop offset="100%" style="stop-color:#06B6D4;stop-opacity:1" />
    </linearGradient>
    <filter id="glow">
      <feGaussianBlur stdDeviation="1.5" result="coloredBlur"/>
      <feMerge> 
        <feMergeNode in="coloredBlur"/>
        <feMergeNode in="SourceGraphic"/>
      </feMerge>
    </filter>
  </defs>
  
  <!-- Background circle -->
  <circle cx="16" cy="16" r="15" fill="#e3d8d8" opacity="1"/>
  
  <!-- Server/Backend layers -->
  <rect x="4" y="20" width="24" height="3" rx="1.5" fill="url(#serverGradient)" opacity="0.8"/>
  <rect x="6" y="24" width="20" height="2.5" rx="1.25" fill="url(#serverGradient)" opacity="0.9"/>
  <rect x="8" y="27" width="16" height="2" rx="1" fill="url(#serverGradient)" opacity="1"/>
  
  <!-- AI neural connection dots -->
  <circle cx="12" cy="8" r="1.5" fill="url(#serverGradient)" opacity="0.9"/>
  <circle cx="20" cy="10" r="1.5" fill="url(#serverGradient)" opacity="0.9"/>
  <circle cx="24" cy="15" r="1.5" fill="url(#serverGradient)" opacity="0.9"/>
  
  <!-- Connection lines -->
  <line x1="12" y1="8" x2="20" y2="10" stroke="url(#serverGradient)" stroke-width="1" opacity="0.7"/>
  <line x1="20" y1="10" x2="24" y2="15" stroke="url(#serverGradient)" stroke-width="1" opacity="0.7"/>
  
  <!-- Speed lines -->
  <line x1="2" y1="12" x2="6" y2="12" stroke="url(#lightningGradient)" stroke-width="2" opacity="0.8"/>
  <line x1="3" y1="16" x2="7" y2="16" stroke="url(#lightningGradient)" stroke-width="2" opacity="0.7"/>
  <line x1="25" y1="18" x2="29" y2="18" stroke="url(#lightningGradient)" stroke-width="2" opacity="0.8"/>
  <line x1="26" y1="22" x2="30" y2="22" stroke="url(#lightningGradient)" stroke-width="2" opacity="0.7"/>
</svg>
